Coordinates
version=1
nRows=16
nColumns=42
inDegrees=yes

Units are S.I. units (second, meters, Newtons, ...)
If the header above contains a line with 'inDegrees', this indicates whether rotational values are in degrees (yes) or radians (no).

endheader
time	pelvis_tilt	pelvis_list	pelvis_rotation	pelvis_tx	pelvis_ty	pelvis_tz	hip_flexion_r	hip_adduction_r	hip_rotation_r	knee_angle_r	knee_adduction_r	knee_angle_r_beta	ankle_angle_r	subtalar_angle_r	mtp_angle_r	hip_flexion_l	hip_adduction_l	hip_rotation_l	knee_angle_l	knee_adduction_l	knee_angle_l_beta	ankle_angle_l	subtalar_angle_l	mtp_angle_l	lumbar_extension	lumbar_bending	lumbar_rotation	arm_flex_r	arm_add_r	arm_rot_r	elbow_flex_r	pro_sup_r	wrist_flex_r	wrist_dev_r	arm_flex_l	arm_add_l	arm_rot_l	elbow_flex_l	pro_sup_l	wrist_flex_l	wrist_dev_l
      2.60000000	      2.60381308	     -0.30536675	      2.63451436	      0.41888567	      0.87346905	      0.24938674	     16.27867336	      6.83273515	    -38.36072278	     28.50015153	    -21.59897697	      0.49742148	     22.76423441	     29.30186613	     -7.50006686	     30.99786247	      0.51172320	     -0.19428129	     71.78496438	     -2.60247854	      1.25288398	      7.42391444	    -17.78807638	     -7.50006686	    -22.03771320	     -0.13640480	      2.94740710	     12.56282401	    -15.29343101	      7.32474406	     37.32936483	     90.00000001	      0.00000000	      0.00000000	      6.13926827	    -16.02469334	     14.12055601	     35.76236498	     90.00000001	      0.00000000	      0.00000000
      2.61000000	      2.79451171	     -0.28750366	      2.01109939	      0.43084499	      0.87377528	      0.24989721	     14.94915136	      6.79734331	    -38.69784333	     28.02181308	    -21.61493532	      0.48907290	     23.78220555	     32.21989300	     -7.50006347	     31.71360140	      0.38964485	     -1.14764711	     69.16104619	     -3.07031475	      1.20708797	      7.36239304	    -17.72264952	     -7.50006347	    -22.16698858	     -0.20394101	      3.59760197	     12.90034590	    -16.14540111	      8.08004658	     38.92684013	     90.00000001	      0.00000000	      0.00000000	      5.39166117	    -15.45376138	     14.68817912	     34.22841073	     90.00000001	      0.00000000	      0.00000000
      2.62000000	      2.91350208	     -0.30254650	      1.50016038	      0.44275220	      0.87378116	      0.25045703	     13.72170854	      6.93265300	    -38.64644882	     27.65151776	    -21.61843976	      0.48261003	     24.23302221	     32.11271229	     -7.50006237	     32.33873702	      0.30032356	     -1.51240720	     66.21187341	     -3.15334374	      1.15561519	      7.57911418	    -17.68481050	     -7.50006237	    -22.21663957	     -0.26927170	      3.97528697	     13.67420365	    -16.47887914	      8.12658029	     39.61887300	     90.00000001	      0.00000000	      0.00000000	      4.19351211	    -15.12352974	     14.85598628	     33.70176438	     90.00000001	      0.00000000	      0.00000000
      2.63000000	      3.24741026	     -0.33377451	      0.96133460	      0.45485247	      0.87385499	      0.25092753	     12.19114093	      6.96169827	    -38.74846343	     27.22575298	    -21.51841388	      0.47517903	     25.43150864	     33.88752201	     -7.50005992	     32.61049844	      0.13353466	     -2.91014104	     62.95782810	     -4.11253077	      1.09882139	      7.42606894	    -17.60341379	     -7.50005992	    -22.52126566	     -0.29110174	      4.49409951	     14.16765058	    -17.15200684	      8.58851599	     41.01440926	     90.00000001	      0.00000000	      0.00000000	      3.37264320	    -14.63987188	     15.20107769	     32.54162993	     90.00000001	      0.00000000	      0.00000000
      2.64000000	      3.28909689	     -0.39732888	      0.53908116	      0.46671692	      0.87325404	      0.25138877	     11.12412342	      7.12809862	    -38.72727598	     26.95235974	    -21.60260655	      0.47040742	     25.81831725	     33.70804556	     -7.50005890	     33.08139363	      0.03738116	     -3.42509434	     59.47888007	     -4.44395171	      1.03810229	      7.57042055	    -17.47146503	     -7.50005890	    -22.50699173	     -0.30540923	      4.80687955	     14.87313057	    -17.45645833	      8.62275294	     41.71495172	     90.00000001	      0.00000000	      0.00000000	      2.21102359	    -14.28267230	     15.35127352	     32.04891313	     90.00000001	      0.00000000	      0.00000000
      2.65000000	      3.59475721	     -0.45127341	      0.10106552	      0.47885125	      0.87281545	      0.25165405	      9.67691392	      7.12946392	    -38.83479841	     26.66803960	    -21.52661180	      0.46544510	     26.89925190	     35.15795795	     -7.50005326	     33.14967593	     -0.09912168	     -5.23722282	     55.71543373	     -5.75978552	      0.97241776	      7.30093383	    -17.00663573	     -7.50005326	    -22.77935082	     -0.26436735	      5.26188121	     15.23937489	    -18.33045836	      9.65679666	     43.42522020	     90.00000001	      0.00000000	      0.00000000	      1.44120471	    -13.78904467	     15.81895427	     30.83170943	     90.00000001	      0.00000000	      0.00000000
      2.66000000	      3.77996418	     -0.53369350	     -0.22619423	      0.49085115	      0.87200851	      0.25187381	      8.42847985	      7.21676385	    -38.82864151	     26.49235040	    -21.49593099	      0.46237874	     27.64733294	     35.21775715	     -7.50005180	     33.21686455	     -0.19206620	     -6.39394791	     51.76625064	     -6.55434266	      0.90349152	      7.14966698	    -16.62692563	     -7.50005180	    -22.93514811	     -0.21353794	      5.51464004	     15.97391435	    -18.62162887	      9.64871145	     44.13432407	     90.00000001	      0.00000000	      0.00000000	      0.37088763	    -13.41617888	     15.94959951	     30.35820429	     90.00000001	      0.00000000	      0.00000000
      2.67000000	      3.87001333	     -0.63991555	     -0.54844380	      0.50283007	      0.87083602	      0.25202816	      7.34488738	      7.34865166	    -38.91050982	     26.31474206	    -21.63480222	      0.45927889	     28.50934558	     35.78836354	     -7.50004899	     33.35053769	     -0.32265494	     -8.04403531	     47.71730199	     -7.63503153	      0.83282403	      6.98414346	    -15.60117310	     -7.50004899	    -22.98232139	     -0.12235047	      5.83043428	     16.49199870	    -19.06233931	      9.87093345	     45.16120518	     90.00000001	      0.00000000	      0.00000000	     -0.57486556	    -12.98922443	     16.09328775	     29.66412803	     90.00000001	      0.00000000	      0.00000000
      2.68000000	      4.02284328	     -0.76481121	     -0.77135578	      0.51480526	      0.86963051	      0.25199454	      6.17995151	      7.46450978	    -38.94061426	     26.21845659	    -21.66007329	      0.45759839	     29.19866538	     35.76468567	     -7.50004756	     33.27509905	     -0.40053914	     -9.25339119	     43.57190172	     -8.32757531	      0.76047315	      6.85194824	    -14.60789538	     -7.50004756	    -23.11397360	      0.01334566	      6.00343324	     17.17412295	    -19.32953470	      9.91158669	     45.87062522	     90.00000001	      0.00000000	      0.00000000	     -1.59452575	    -12.61060027	     16.17062202	     29.25674492	     90.00000001	      0.00000000	      0.00000000
      2.69000000	      4.08443929	     -0.92188130	     -0.99422933	      0.52681527	      0.86809477	      0.25195879	      5.15656108	      7.66115687	    -39.00870742	     26.10051535	    -21.82498066	      0.45553993	     30.09435202	     36.11381007	     -7.50004511	     33.32750136	     -0.56722561	    -11.03606861	     39.53830160	     -9.23271680	      0.69007354	      7.01375864	    -12.23959049	     -7.50004511	    -23.13110871	      0.17163100	      6.22080568	     17.67835596	    -19.70994943	     10.18637418	     46.77868238	     90.00000001	      0.00000000	      0.00000000	     -2.54247779	    -12.20590771	     16.16735071	     28.74656194	     90.00000001	      0.00000000	      0.00000000
      2.70000000	      4.22000228	     -1.11153103	     -1.16334238	      0.53889366	      0.86654961	      0.25178274	      4.05305998	      7.87068621	    -39.05749645	     26.04002272	    -21.96374979	      0.45448413	     30.61558959	     36.12330380	     -7.50004109	     33.26067119	     -0.77813066	    -12.79782737	     35.66976220	     -9.92179652	      0.62255479	      7.84867348	     -8.53467688	     -7.50004109	    -23.24067135	      0.38915683	      6.35352118	     18.27827752	    -20.07634412	     10.59909704	     47.54333336	     90.00000001	      0.00000000	      0.00000000	     -3.51100148	    -11.79786083	     15.97138804	     28.42611570	     90.00000001	      0.00000000	      0.00000000
      2.71000000	      4.36824927	     -1.28819337	     -1.30542570	      0.55098697	      0.86495610	      0.25147799	      2.96541634	      8.04112285	    -39.10504768	     26.05910812	    -22.11157021	      0.45481724	     31.22840793	     36.13422399	     -7.50003761	     33.17150321	     -0.95555014	    -14.41140674	     32.11190582	    -10.36200313	      0.56045849	      8.31612267	     -4.96730316	     -7.50003761	    -23.36240236	      0.60546673	      6.44886425	     18.86922313	    -20.29471336	     10.78537431	     48.14728283	     90.00000001	      0.00000000	      0.00000000	     -4.45975455	    -11.39383748	     15.74704004	     28.20223895	     90.00000001	      0.00000000	      0.00000000
      2.72000000	      4.40156685	     -1.45047524	     -1.38313780	      0.56304103	      0.86324065	      0.25103859	      2.01302023	      8.18555533	    -39.14319780	     26.10546227	    -22.20897827	      0.45562627	     31.70892177	     35.98821925	     -7.50003685	     33.12021004	     -0.93789237	    -14.95226645	     28.92325720	    -10.36609471	      0.50480607	      8.00696756	     -3.35958557	     -7.50003685	    -23.35856197	      0.80404311	      6.48874272	     19.46794012	    -20.42688082	     10.77087267	     48.57740055	     90.00000001	      0.00000000	      0.00000000	     -5.34078554	    -11.07729583	     15.72942525	     27.99022296	     90.00000001	      0.00000000	      0.00000000
      2.73000000	      4.42786208	     -1.57722450	     -1.47364726	      0.57518521	      0.86146649	      0.25048893	      1.11077346	      8.29807598	    -39.19171579	     26.18654822	    -22.43044751	      0.45704149	     32.15184979	     35.85975679	     -7.50003625	     33.11547047	     -0.86852608	    -15.59237545	     26.22013246	    -10.44805904	      0.45762764	      7.93264237	     -1.36275638	     -7.50003625	    -23.35177084	      0.96439895	      6.51584901	     19.95387281	    -20.52746455	     10.78245136	     48.99196574	     90.00000001	      0.00000000	      0.00000000	     -6.18627938	    -10.80919852	     15.68810179	     27.80760702	     90.00000001	      0.00000000	      0.00000000
      2.74000000	      4.63711812	     -1.82892768	     -1.62985267	      0.58775902	      0.85975603	      0.25003472	     -0.03849980	      8.51596145	    -39.21406315	     26.27721551	    -22.61378416	      0.45862393	     32.64020188	     35.81873610	     -7.50003315	     33.40362458	     -1.44432284	    -18.75549695	     24.64333364	    -11.05273012	      0.43010731	      9.80533466	      6.45963922	     -7.50003315	    -23.49197385	      1.25660430	      6.66274520	     20.34113342	    -20.78269715	     11.06037712	     49.65315238	     90.00000001	      0.00000000	      0.00000000	     -7.06921954	    -10.37522038	     15.19235095	     27.86806881	     90.00000001	      0.00000000	      0.00000000
      2.75000000	      4.67234139	     -1.91842553	     -1.71170202	      0.60011883	      0.85806811	      0.24929372	     -0.89944089	      8.51276572	    -39.24496377	     26.52104951	    -22.82426171	      0.46287964	     32.84189979	     35.73495200	     -7.50003263	     33.43797051	     -1.27276752	    -18.78218434	     23.21613522	    -10.96626386	      0.40519800	      9.58311975	      7.48091198	     -7.50003263	    -23.46328671	      1.38029774	      6.68522313	     20.74399553	    -20.81054393	     11.00691952	     49.89907317	     90.00000001	      0.00000000	      0.00000000	     -7.75444030	    -10.08786271	     15.19319036	     27.69160058	     90.00000001	      0.00000000	      0.00000000
